<mxfile host="app.diagrams.net" modified="2022-04-29T11:41:25.177Z" agent="5.0 (Windows NT 10.0; Win64; x64) AppleWebKit/537.36 (KHTML, like Gecko) Chrome/100.0.4896.127 Safari/537.36 Edg/100.0.1185.50" etag="oyLvKGqMmEDDZo2W2971" version="17.4.6" type="github">
  <diagram id="WbeyvM9TQOJgrzk27wEi" name="Page-1">
    <mxGraphModel dx="1038" dy="579" grid="1" gridSize="10" guides="1" tooltips="1" connect="1" arrows="1" fold="1" page="1" pageScale="1" pageWidth="850" pageHeight="1100" math="0" shadow="0">
      <root>
        <mxCell id="0" />
        <mxCell id="1" parent="0" />
        <mxCell id="QMW6p2C54MjcTOyKL7Cl-3" value="" style="edgeStyle=orthogonalEdgeStyle;rounded=0;orthogonalLoop=1;jettySize=auto;html=1;" edge="1" parent="1" source="QMW6p2C54MjcTOyKL7Cl-1" target="QMW6p2C54MjcTOyKL7Cl-2">
          <mxGeometry relative="1" as="geometry" />
        </mxCell>
        <mxCell id="QMW6p2C54MjcTOyKL7Cl-1" value="start" style="rounded=1;whiteSpace=wrap;html=1;" vertex="1" parent="1">
          <mxGeometry x="80" y="30" width="90" height="20" as="geometry" />
        </mxCell>
        <mxCell id="QMW6p2C54MjcTOyKL7Cl-5" value="" style="edgeStyle=orthogonalEdgeStyle;rounded=0;orthogonalLoop=1;jettySize=auto;html=1;" edge="1" parent="1" source="QMW6p2C54MjcTOyKL7Cl-2" target="QMW6p2C54MjcTOyKL7Cl-4">
          <mxGeometry relative="1" as="geometry" />
        </mxCell>
        <mxCell id="QMW6p2C54MjcTOyKL7Cl-2" value="initialize the set target and target&amp;nbsp;" style="rounded=0;whiteSpace=wrap;html=1;" vertex="1" parent="1">
          <mxGeometry x="65" y="90" width="120" height="60" as="geometry" />
        </mxCell>
        <mxCell id="QMW6p2C54MjcTOyKL7Cl-9" value="yes" style="edgeStyle=orthogonalEdgeStyle;rounded=0;orthogonalLoop=1;jettySize=auto;html=1;" edge="1" parent="1" source="QMW6p2C54MjcTOyKL7Cl-4" target="QMW6p2C54MjcTOyKL7Cl-8">
          <mxGeometry relative="1" as="geometry" />
        </mxCell>
        <mxCell id="QMW6p2C54MjcTOyKL7Cl-11" value="no" style="edgeStyle=orthogonalEdgeStyle;rounded=0;orthogonalLoop=1;jettySize=auto;html=1;entryX=0;entryY=0.5;entryDx=0;entryDy=0;" edge="1" parent="1" source="QMW6p2C54MjcTOyKL7Cl-4" target="QMW6p2C54MjcTOyKL7Cl-10">
          <mxGeometry relative="1" as="geometry" />
        </mxCell>
        <mxCell id="QMW6p2C54MjcTOyKL7Cl-4" value="IF nearest target has sight data" style="rhombus;whiteSpace=wrap;html=1;rounded=0;" vertex="1" parent="1">
          <mxGeometry x="85" y="200" width="80" height="80" as="geometry" />
        </mxCell>
        <mxCell id="QMW6p2C54MjcTOyKL7Cl-8" value="set the target&amp;nbsp;" style="rounded=0;whiteSpace=wrap;html=1;" vertex="1" parent="1">
          <mxGeometry x="65" y="320" width="120" height="60" as="geometry" />
        </mxCell>
        <mxCell id="QMW6p2C54MjcTOyKL7Cl-13" value="" style="edgeStyle=orthogonalEdgeStyle;rounded=0;orthogonalLoop=1;jettySize=auto;html=1;" edge="1" parent="1" source="QMW6p2C54MjcTOyKL7Cl-10" target="QMW6p2C54MjcTOyKL7Cl-12">
          <mxGeometry relative="1" as="geometry" />
        </mxCell>
        <mxCell id="QMW6p2C54MjcTOyKL7Cl-10" value="ELSE IF attack rng target not empty" style="rhombus;whiteSpace=wrap;html=1;rounded=0;" vertex="1" parent="1">
          <mxGeometry x="230" y="20" width="80" height="80" as="geometry" />
        </mxCell>
        <mxCell id="QMW6p2C54MjcTOyKL7Cl-15" value="" style="edgeStyle=orthogonalEdgeStyle;rounded=0;orthogonalLoop=1;jettySize=auto;html=1;" edge="1" parent="1" source="QMW6p2C54MjcTOyKL7Cl-12" target="QMW6p2C54MjcTOyKL7Cl-14">
          <mxGeometry relative="1" as="geometry" />
        </mxCell>
        <mxCell id="QMW6p2C54MjcTOyKL7Cl-12" value="set the target&amp;nbsp;" style="rounded=0;whiteSpace=wrap;html=1;" vertex="1" parent="1">
          <mxGeometry x="220" y="130" width="120" height="60" as="geometry" />
        </mxCell>
        <mxCell id="QMW6p2C54MjcTOyKL7Cl-17" value="yes" style="edgeStyle=orthogonalEdgeStyle;rounded=0;orthogonalLoop=1;jettySize=auto;html=1;" edge="1" parent="1" source="QMW6p2C54MjcTOyKL7Cl-14" target="QMW6p2C54MjcTOyKL7Cl-16">
          <mxGeometry relative="1" as="geometry" />
        </mxCell>
        <mxCell id="QMW6p2C54MjcTOyKL7Cl-31" style="edgeStyle=orthogonalEdgeStyle;rounded=0;orthogonalLoop=1;jettySize=auto;html=1;entryX=0.5;entryY=0;entryDx=0;entryDy=0;fontSize=12;" edge="1" parent="1" source="QMW6p2C54MjcTOyKL7Cl-14" target="QMW6p2C54MjcTOyKL7Cl-28">
          <mxGeometry relative="1" as="geometry">
            <Array as="points">
              <mxPoint x="205" y="260" />
            </Array>
          </mxGeometry>
        </mxCell>
        <mxCell id="QMW6p2C54MjcTOyKL7Cl-32" value="NO" style="edgeLabel;html=1;align=center;verticalAlign=middle;resizable=0;points=[];fontSize=12;" vertex="1" connectable="0" parent="QMW6p2C54MjcTOyKL7Cl-31">
          <mxGeometry x="-0.1015" y="1" relative="1" as="geometry">
            <mxPoint as="offset" />
          </mxGeometry>
        </mxCell>
        <mxCell id="QMW6p2C54MjcTOyKL7Cl-14" value="IF target not undefined" style="rhombus;whiteSpace=wrap;html=1;rounded=0;" vertex="1" parent="1">
          <mxGeometry x="240" y="220" width="80" height="80" as="geometry" />
        </mxCell>
        <mxCell id="QMW6p2C54MjcTOyKL7Cl-19" value="" style="edgeStyle=orthogonalEdgeStyle;rounded=0;orthogonalLoop=1;jettySize=auto;html=1;entryX=0.5;entryY=0;entryDx=0;entryDy=0;" edge="1" parent="1" source="QMW6p2C54MjcTOyKL7Cl-16" target="QMW6p2C54MjcTOyKL7Cl-18">
          <mxGeometry relative="1" as="geometry" />
        </mxCell>
        <mxCell id="QMW6p2C54MjcTOyKL7Cl-16" value="set nearest as target" style="whiteSpace=wrap;html=1;rounded=0;" vertex="1" parent="1">
          <mxGeometry x="220" y="340" width="120" height="60" as="geometry" />
        </mxCell>
        <mxCell id="QMW6p2C54MjcTOyKL7Cl-21" value="yes" style="edgeStyle=orthogonalEdgeStyle;rounded=0;orthogonalLoop=1;jettySize=auto;html=1;fontSize=9;" edge="1" parent="1" source="QMW6p2C54MjcTOyKL7Cl-18" target="QMW6p2C54MjcTOyKL7Cl-20">
          <mxGeometry relative="1" as="geometry" />
        </mxCell>
        <mxCell id="QMW6p2C54MjcTOyKL7Cl-23" value="no" style="edgeStyle=orthogonalEdgeStyle;rounded=0;orthogonalLoop=1;jettySize=auto;html=1;fontSize=9;" edge="1" parent="1" source="QMW6p2C54MjcTOyKL7Cl-18" target="QMW6p2C54MjcTOyKL7Cl-22">
          <mxGeometry relative="1" as="geometry" />
        </mxCell>
        <mxCell id="QMW6p2C54MjcTOyKL7Cl-18" value="&lt;font style=&quot;font-size: 9px&quot;&gt;IF current target = locked&amp;nbsp;&lt;br&gt;sight rng target&lt;/font&gt;" style="rhombus;whiteSpace=wrap;html=1;rounded=0;" vertex="1" parent="1">
          <mxGeometry x="385" y="30" width="80" height="80" as="geometry" />
        </mxCell>
        <mxCell id="QMW6p2C54MjcTOyKL7Cl-20" value="set the goal as agent target" style="whiteSpace=wrap;html=1;rounded=0;" vertex="1" parent="1">
          <mxGeometry x="365" y="140" width="120" height="60" as="geometry" />
        </mxCell>
        <mxCell id="QMW6p2C54MjcTOyKL7Cl-25" value="" style="edgeStyle=orthogonalEdgeStyle;rounded=0;orthogonalLoop=1;jettySize=auto;html=1;fontSize=12;" edge="1" parent="1" source="QMW6p2C54MjcTOyKL7Cl-22" target="QMW6p2C54MjcTOyKL7Cl-24">
          <mxGeometry relative="1" as="geometry" />
        </mxCell>
        <mxCell id="QMW6p2C54MjcTOyKL7Cl-22" value="&lt;font style=&quot;font-size: 12px&quot;&gt;ELSE&amp;nbsp;&lt;/font&gt;" style="rhombus;whiteSpace=wrap;html=1;rounded=0;" vertex="1" parent="1">
          <mxGeometry x="521" y="10" width="80" height="80" as="geometry" />
        </mxCell>
        <mxCell id="QMW6p2C54MjcTOyKL7Cl-27" value="" style="edgeStyle=orthogonalEdgeStyle;rounded=0;orthogonalLoop=1;jettySize=auto;html=1;fontSize=12;" edge="1" parent="1" source="QMW6p2C54MjcTOyKL7Cl-24" target="QMW6p2C54MjcTOyKL7Cl-26">
          <mxGeometry relative="1" as="geometry" />
        </mxCell>
        <mxCell id="QMW6p2C54MjcTOyKL7Cl-24" value="set locked sight rng and the goal as agent target" style="whiteSpace=wrap;html=1;rounded=0;" vertex="1" parent="1">
          <mxGeometry x="501" y="140" width="120" height="60" as="geometry" />
        </mxCell>
        <mxCell id="QMW6p2C54MjcTOyKL7Cl-26" value="set the target found as true" style="rounded=0;whiteSpace=wrap;html=1;fontSize=12;" vertex="1" parent="1">
          <mxGeometry x="490" y="230" width="120" height="60" as="geometry" />
        </mxCell>
        <mxCell id="QMW6p2C54MjcTOyKL7Cl-34" value="" style="edgeStyle=orthogonalEdgeStyle;rounded=0;orthogonalLoop=1;jettySize=auto;html=1;fontSize=12;" edge="1" parent="1" source="QMW6p2C54MjcTOyKL7Cl-28" target="QMW6p2C54MjcTOyKL7Cl-33">
          <mxGeometry relative="1" as="geometry" />
        </mxCell>
        <mxCell id="QMW6p2C54MjcTOyKL7Cl-28" value="ELSE" style="rhombus;whiteSpace=wrap;html=1;rounded=0;" vertex="1" parent="1">
          <mxGeometry x="165" y="420" width="80" height="80" as="geometry" />
        </mxCell>
        <mxCell id="QMW6p2C54MjcTOyKL7Cl-36" value="" style="edgeStyle=orthogonalEdgeStyle;rounded=0;orthogonalLoop=1;jettySize=auto;html=1;fontSize=12;" edge="1" parent="1" source="QMW6p2C54MjcTOyKL7Cl-33" target="QMW6p2C54MjcTOyKL7Cl-35">
          <mxGeometry relative="1" as="geometry" />
        </mxCell>
        <mxCell id="QMW6p2C54MjcTOyKL7Cl-33" value="IF locked attack rng target not empty&amp;nbsp;" style="rhombus;whiteSpace=wrap;html=1;rounded=0;" vertex="1" parent="1">
          <mxGeometry x="300" y="420" width="80" height="80" as="geometry" />
        </mxCell>
        <mxCell id="QMW6p2C54MjcTOyKL7Cl-38" value="" style="edgeStyle=orthogonalEdgeStyle;rounded=0;orthogonalLoop=1;jettySize=auto;html=1;fontSize=12;" edge="1" parent="1" source="QMW6p2C54MjcTOyKL7Cl-35" target="QMW6p2C54MjcTOyKL7Cl-37">
          <mxGeometry relative="1" as="geometry">
            <Array as="points">
              <mxPoint x="560" y="350" />
            </Array>
          </mxGeometry>
        </mxCell>
        <mxCell id="QMW6p2C54MjcTOyKL7Cl-35" value="set target&amp;nbsp; found as reset target" style="whiteSpace=wrap;html=1;rounded=0;" vertex="1" parent="1">
          <mxGeometry x="425" y="430" width="120" height="60" as="geometry" />
        </mxCell>
        <mxCell id="QMW6p2C54MjcTOyKL7Cl-40" value="" style="edgeStyle=orthogonalEdgeStyle;rounded=0;orthogonalLoop=1;jettySize=auto;html=1;fontSize=12;" edge="1" parent="1" source="QMW6p2C54MjcTOyKL7Cl-37" target="QMW6p2C54MjcTOyKL7Cl-39">
          <mxGeometry relative="1" as="geometry" />
        </mxCell>
        <mxCell id="QMW6p2C54MjcTOyKL7Cl-37" value="return the target" style="whiteSpace=wrap;html=1;rounded=0;" vertex="1" parent="1">
          <mxGeometry x="580" y="320" width="120" height="60" as="geometry" />
        </mxCell>
        <mxCell id="QMW6p2C54MjcTOyKL7Cl-39" value="end" style="ellipse;whiteSpace=wrap;html=1;rounded=0;" vertex="1" parent="1">
          <mxGeometry x="580" y="420" width="120" height="60" as="geometry" />
        </mxCell>
      </root>
    </mxGraphModel>
  </diagram>
</mxfile>
